<?xml version="1.0" encoding="utf-8"?>
<!-- Generator: Adobe Illustrator 16.0.0, SVG Export Plug-In . SVG Version: 6.00 Build 0)  -->
<!DOCTYPE svg PUBLIC "-//W3C//DTD SVG 1.1//EN" "http://www.w3.org/Graphics/SVG/1.1/DTD/svg11.dtd">
<svg version="1.1" id="Layer_1" xmlns="http://www.w3.org/2000/svg" xmlns:xlink="http://www.w3.org/1999/xlink" x="0px" y="0px"
	 width="100px" height="100px" viewBox="0 0 100 100" enable-background="new 0 0 100 100" xml:space="preserve">
<rect x="-3700.932" y="-214.941" fill="#72C2B5" stroke="#FFFFFF" stroke-width="1.0861" stroke-miterlimit="10" width="492.308" height="265.667"/>
<circle fill="#FFFFFF" cx="-3628.957" cy="-95.632" r="64.5"/>
<path fill="#72C2B5" d="M-3593.75-104.479h-19.298v-15.896c0-0.958,0.776-1.734,1.733-1.734h16.054v-19.69h-22.653v0.005
	c-0.057-0.001-0.111-0.005-0.168-0.005c-10.377,0-18.804,8.267-19.102,18.571h-0.028v18.75h-11.579v21.077h11.579v55.937h24.164
	v-55.937h16.613L-3593.75-104.479z"/>
<circle fill="#FFFFFF" cx="-3472.285" cy="-95.632" r="64.5"/>
<circle fill="#FFFFFF" cx="-3334.285" cy="-95.632" r="64.5"/>
<path fill-rule="evenodd" clip-rule="evenodd" fill="#72C2B5" d="M-3462.547-81.242c-2.899-2.689-6.028-5.08-9.128-7.519
	c-3.66-2.876-3.921-6.663-0.591-9.931c1.615-1.583,3.409-2.98,5.092-4.496c6.076-5.473,8.075-13.578,5.306-21.137
	c-1.331-3.638-3.804-6.441-6.687-9.207c2.451-0.476,4.941,0.572,6.835-0.528c1.852-1.076,3.188-3.039,5.146-5.009
	c-11.145,0.412-21.778-0.811-32.29,0.631c-8.696,1.193-15.43,5.659-19,14.158c-4.798,11.416,0.737,24.227,12.121,27.775
	c3.228,1.007,6.577,1.084,10.048,1.018c-1.304,4.612-0.85,8.678,2.713,12.171c-2.832,0.372-5.285,0.639-7.719,1.025
	c-6.751,1.074-13.229,2.915-18.684,7.286c-7.518,6.022-9.784,17.021-1.544,24.55c2.31,2.11,4.936,3.532,7.747,4.566h-0.007
	c3.752,1.315,8.924,2.325,14.539,2.341c0.912-0.002,1.834-0.027,2.765-0.082c0.057,0,0.111,0,0.169,0
	c0.456-0.029,0.916-0.066,1.376-0.109c0.006-0.002,0.013-0.009,0.021-0.014c0.318-0.029,0.638-0.062,0.957-0.098
	c0.005,0.002,0.007,0.007,0.011,0.011c0.897-0.104,1.798-0.236,2.699-0.398c0.003-0.005,0.007-0.009,0.011-0.012
	c1.088-0.195,2.17-0.436,3.235-0.723c0.005-0.002,0.009-0.002,0.015-0.004c0.354-0.096,0.709-0.196,1.059-0.306h-0.002
	c4.161-1.174,8.044-2.974,11.525-5.708C-3455.26-58.493-3452.802-72.205-3462.547-81.242z M-3493.023-104.913
	c-4.572-6.005-6.399-12.875-5.36-20.198c0.572-4.024,2.78-7.603,7.166-9.12c4.616-1.597,8.623-0.43,12.112,2.648
	c4.566,4.029,6.719,9.393,7.768,15.242c0.242,1.348,0.416,2.515,0.47,3.809c0.013,6.418-2.84,10.686-8.107,12.439
	C-3484.166-98.362-3489.438-100.206-3493.023-104.913z M-3469.974-52.924c-3.631,2.53-7.59,3.604-11.045,3.599
	c-6.771,0.03-11.178-0.768-15.316-2.755c-6.689-3.216-9.944-9.813-7.908-16.162c1.489-4.644,5.139-7.15,9.45-8.712
	c4.905-1.777,10.051-2.302,15.252-2.251c0.49,0.004,1.077,0.068,1.453,0.337c3.901,2.801,8.074,5.321,10.987,9.259
	C-3462.996-64.063-3464.282-56.891-3469.974-52.924z"/>
<g>
	<path fill="#72C2B5" d="M-3437.601-109.266v11.173h10.713v4.818h-10.713v11.276h-5.023v-11.276h-10.711v-4.818h10.711v-11.173
		H-3437.601z"/>
</g>
<path fill-rule="evenodd" clip-rule="evenodd" fill="#72C2B5" d="M-3327.41-104.361c2.681-3.793,6.068-6.431,10.411-7.645
	c5.988-1.674,11.919-1.346,17.555,1.408c4.646,2.271,6.952,6.391,8.218,11.2c0.978,3.71,1.307,7.511,1.326,11.326
	c0.051,10.118,0.004,20.236,0.058,30.353c0.008,1.274-0.447,1.557-1.613,1.544c-4.741-0.052-9.481-0.058-14.223,0.004
	c-1.213,0.015-1.577-0.345-1.572-1.568c0.044-9.188,0.032-18.378,0.008-27.567c-0.008-2.695-0.239-5.374-1.32-7.893
	c-1.164-2.706-3.227-4.208-6.163-4.512c-7.032-0.727-11.253,2.769-11.765,9.839c-0.574,7.908-0.155,15.83-0.265,23.745
	c-0.032,2.249-0.03,4.498,0.008,6.746c0.015,0.883-0.302,1.208-1.194,1.202c-4.937-0.029-9.874-0.048-14.811,0.006
	c-1.238,0.013-1.299-0.63-1.297-1.563c0.018-7.967,0.01-15.935,0.01-23.901c0-9.385,0.028-18.77-0.029-28.153
	c-0.009-1.396,0.354-1.85,1.792-1.821c4.494,0.089,8.994,0.064,13.489,0.009c1.105-0.013,1.446,0.33,1.4,1.422
	C-3327.469-108.245-3327.41-106.302-3327.41-104.361z"/>
<path fill-rule="evenodd" clip-rule="evenodd" fill="#72C2B5" d="M-3372.328-84.006c0-8.649,0.025-17.298-0.029-25.947
	c-0.008-1.277,0.315-1.68,1.626-1.659c4.738,0.076,9.48,0.066,14.22,0.006c1.216-0.015,1.569,0.357,1.568,1.578
	c-0.037,17.396-0.039,34.792,0.001,52.188c0.003,1.281-0.343,1.688-1.644,1.669c-4.739-0.068-9.48-0.066-14.219-0.001
	c-1.245,0.017-1.554-0.402-1.548-1.594C-3372.308-66.513-3372.328-75.259-3372.328-84.006z"/>
<path fill-rule="evenodd" clip-rule="evenodd" fill="#72C2B5" d="M-3373.71-129.196c0.004-5.473,4.473-9.936,9.981-9.967
	c5.549-0.031,10.145,4.498,10.14,9.995c-0.004,5.493-4.588,9.978-10.17,9.949C-3369.279-119.248-3373.714-123.693-3373.71-129.196z"
	/>
<path fill="#FFFFFF" d="M49.992,0C22.382,0,0,22.382,0,49.992c0,25.44,19.007,46.427,43.593,49.569V59.471h-8.974V43.134h8.974
	V28.603h0.023c0.23-7.986,6.762-14.394,14.806-14.394c0.042,0,0.085,0.004,0.129,0.005v-0.005h17.558v15.262H63.666
	c-0.741,0-1.344,0.602-1.344,1.343v12.321H77.28l-2.081,16.336H62.322v38.975c21.646-5.49,37.662-25.1,37.662-48.453
	C99.984,22.382,77.601,0,49.992,0z"/>
<g>
	<path fill="#FFFFFF" d="M-1712.021,186.073c-0.376-0.269-0.963-0.333-1.453-0.337c-5.201-0.051-10.347,0.474-15.252,2.251
		c-4.312,1.562-7.961,4.068-9.45,8.712c-2.036,6.35,1.219,12.946,7.908,16.162c4.139,1.987,8.546,2.785,15.316,2.755
		c3.455,0.005,7.414-1.068,11.045-3.599c5.691-3.967,6.978-11.139,2.873-16.686
		C-1703.946,191.395-1708.119,188.874-1712.021,186.073z"/>
	<path fill="#FFFFFF" d="M-1712.908,164.851c5.268-1.754,8.12-6.021,8.107-12.439c-0.054-1.295-0.228-2.461-0.47-3.809
		c-1.049-5.85-3.201-11.214-7.768-15.242c-3.489-3.078-7.496-4.246-12.112-2.648c-4.386,1.517-6.594,5.095-7.166,9.119
		c-1.039,7.322,0.788,14.193,5.36,20.197C-1723.371,164.735-1718.099,166.579-1712.908,164.851z"/>
	<path fill="#FFFFFF" d="M-1706.218,104.81c-35.622,0-64.499,28.877-64.499,64.5c0,35.622,28.877,64.499,64.499,64.499
		s64.5-28.877,64.5-64.499C-1641.718,133.687-1670.596,104.81-1706.218,104.81z M-1698.741,213.953
		c-3.481,2.734-7.364,4.534-11.525,5.708h0.002c-0.35,0.109-0.704,0.21-1.059,0.306c-0.006,0.002-0.01,0.002-0.015,0.004
		c-1.065,0.287-2.147,0.527-3.235,0.723c-0.004,0.003-0.008,0.007-0.011,0.012c-0.901,0.162-1.802,0.294-2.699,0.398
		c-0.004-0.004-0.006-0.009-0.011-0.011c-0.319,0.036-0.639,0.068-0.957,0.098c-0.008,0.005-0.015,0.012-0.021,0.014
		c-0.46,0.043-0.92,0.08-1.376,0.109c-0.058,0-0.112,0-0.169,0c-0.931,0.055-1.853,0.08-2.765,0.082
		c-5.615-0.016-10.787-1.025-14.539-2.341h0.007c-2.812-1.034-5.438-2.456-7.747-4.566c-8.24-7.529-5.974-18.527,1.544-24.55
		c5.455-4.371,11.933-6.212,18.684-7.286c2.434-0.387,4.887-0.653,7.719-1.025c-3.563-3.493-4.017-7.559-2.713-12.171
		c-3.471,0.066-6.82-0.011-10.048-1.018c-11.384-3.549-16.919-16.359-12.121-27.775c3.57-8.499,10.304-12.965,19-14.158
		c10.512-1.441,21.146-0.219,32.29-0.631c-1.958,1.97-3.295,3.934-5.146,5.009c-1.894,1.101-4.384,0.053-6.835,0.528
		c2.883,2.766,5.355,5.568,6.687,9.207c2.77,7.559,0.771,15.663-5.306,21.137c-1.683,1.516-3.477,2.912-5.092,4.495
		c-3.33,3.268-3.069,7.055,0.591,9.931c3.1,2.438,6.229,4.829,9.128,7.519C-1686.734,192.736-1689.192,206.448-1698.741,213.953z
		 M-1660.82,171.667h-10.713v11.275h-5.023v-11.275h-10.711v-4.818h10.711v-11.174h5.023v11.174h10.713V171.667z"/>
</g>
<path fill="#FFFFFF" d="M-1568.218,104.81c-35.622,0-64.499,28.877-64.499,64.5c0,35.622,28.877,64.499,64.499,64.499
	s64.5-28.877,64.5-64.499C-1503.718,133.687-1532.596,104.81-1568.218,104.81z M-1590.519,208.771
	c-4.739-0.068-9.48-0.066-14.219-0.001c-1.245,0.017-1.554-0.402-1.548-1.594c0.045-8.748,0.024-17.494,0.024-26.241
	c0-8.649,0.025-17.298-0.029-25.946c-0.008-1.277,0.315-1.681,1.626-1.66c4.738,0.076,9.48,0.066,14.22,0.007
	c1.216-0.015,1.569,0.356,1.568,1.578c-0.037,17.396-0.039,34.792,0.001,52.188
	C-1588.872,208.384-1589.218,208.791-1590.519,208.771z M-1597.691,145.722c-5.521-0.028-9.955-4.474-9.951-9.977
	c0.004-5.473,4.473-9.936,9.981-9.967c5.549-0.031,10.145,4.498,10.14,9.995C-1587.525,141.267-1592.109,145.751-1597.691,145.722z
	 M-1525.389,208.766c-4.741-0.052-9.481-0.058-14.223,0.004c-1.213,0.015-1.577-0.345-1.572-1.568
	c0.044-9.188,0.032-18.378,0.008-27.567c-0.008-2.695-0.239-5.374-1.32-7.893c-1.164-2.706-3.227-4.208-6.163-4.512
	c-7.032-0.727-11.253,2.769-11.765,9.838c-0.574,7.908-0.155,15.83-0.265,23.745c-0.032,2.249-0.03,4.498,0.008,6.746
	c0.015,0.883-0.302,1.208-1.194,1.202c-4.937-0.029-9.874-0.048-14.811,0.006c-1.238,0.013-1.299-0.63-1.297-1.563
	c0.018-7.967,0.01-15.935,0.01-23.901c0-9.385,0.028-18.77-0.029-28.153c-0.009-1.396,0.354-1.851,1.792-1.821
	c4.494,0.089,8.994,0.064,13.489,0.01c1.105-0.014,1.446,0.329,1.4,1.422c-0.081,1.938-0.022,3.881-0.022,5.821
	c2.681-3.793,6.068-6.431,10.411-7.646c5.988-1.674,11.919-1.346,17.555,1.408c4.646,2.271,6.952,6.391,8.218,11.2
	c0.978,3.71,1.307,7.511,1.326,11.325c0.051,10.118,0.004,20.236,0.058,30.354C-1523.768,208.496-1524.223,208.778-1525.389,208.766
	z"/>
</svg>
