<svg xmlns="http://www.w3.org/2000/svg" xmlns:xlink="http://www.w3.org/1999/xlink" viewBox="0 0 62 62"><defs><style>.a{fill:#fff;}.b{fill:none;stroke:#030310;stroke-miterlimit:10;}.c{fill:#fd0000;}.d{filter:url(#a);}</style><filter id="a" x="0" y="0" width="62" height="62" filterUnits="userSpaceOnUse"><feOffset input="SourceAlpha"/><feGaussianBlur stdDeviation="2" result="b"/><feFlood flood-opacity="0.502"/><feComposite operator="in" in2="b"/><feComposite in="SourceGraphic"/></filter></defs><g transform="translate(-604.17 -13)"><g transform="translate(620 28.117)"><g class="d" transform="matrix(1, 0, 0, 1, -15.83, -15.12)"><circle class="a" cx="25" cy="25" r="25" transform="translate(6 6)"/></g><path class="b" d="M24.359,35.332H6.945a2.517,2.517,0,0,1-2.6-1.948L2.279,19.643a2.4,2.4,0,0,1,2.6-2.543H26.366a2.4,2.4,0,0,1,2.6,2.543L26.909,33.384A2.455,2.455,0,0,1,24.359,35.332Z" transform="translate(-0.333 -7.245)"/><path class="b" d="M27.862,10.471,27.376,7.3a5.7,5.7,0,0,0-5.563-4.8H18.249a5.647,5.647,0,0,0-5.563,4.8L12.2,10.471" transform="translate(-4.848 -0.617)"/></g><ellipse class="c" cx="7.646" cy="7.646" rx="7.646" ry="7.646" transform="translate(639.879 19)"/></g></svg>