<svg xmlns="http://www.w3.org/2000/svg" viewBox="0 0 54.821 54.801"><defs><style>.a{fill:#fff;}</style></defs><path class="a" d="M27.411,54.8a27.4,27.4,0,1,1,27.411-27.39A27.438,27.438,0,0,1,27.411,54.8Zm0-52.559A25.169,25.169,0,1,0,52.58,27.411,25.2,25.2,0,0,0,27.411,2.241Z"/><path class="a" d="M83.619,66.634H68.875V51.91a1.11,1.11,0,0,0-2.221,0V66.654H51.91a1.11,1.11,0,0,0,0,2.221H66.654V83.6a1.11,1.11,0,0,0,2.221,0V68.875H83.619a1.106,1.106,0,0,0,1.11-1.11A1.123,1.123,0,0,0,83.619,66.634Z" transform="translate(-40.354 -40.354)"/></svg>