<svg enable-background="new 0 0 100 100" height="100" viewBox="0 0 100 100" width="100" xmlns="http://www.w3.org/2000/svg"><path d="m-3700.932-214.941h492.309v265.667h-492.309z" fill="#72c2b5" stroke="#fff" stroke-miterlimit="10" stroke-width="1.0861"/><circle cx="-3628.957" cy="-95.632" fill="#fff" r="64.5"/><path d="m-3593.75-104.479h-19.298v-15.896c0-.958.776-1.734 1.733-1.734h16.054v-19.69h-22.653v.005c-.057-.001-.111-.005-.168-.005-10.377 0-18.804 8.267-19.102 18.571h-.028v18.75h-11.579v21.077h11.579v55.937h24.164v-55.937h16.613z" fill="#72c2b5"/><circle cx="-3472.285" cy="-95.632" fill="#fff" r="64.5"/><circle cx="-3334.285" cy="-95.632" fill="#fff" r="64.5"/><g fill="#72c2b5"><path d="m-3462.547-81.242c-2.898-2.689-6.028-5.08-9.128-7.519-3.66-2.876-3.921-6.663-.591-9.931 1.615-1.583 3.409-2.98 5.092-4.496 6.076-5.473 8.075-13.578 5.306-21.137-1.331-3.638-3.804-6.441-6.687-9.207 2.451-.476 4.941.572 6.835-.528 1.852-1.076 3.188-3.039 5.146-5.009-11.145.412-21.778-.811-32.29.631-8.696 1.193-15.43 5.659-19 14.158-4.798 11.416.737 24.228 12.121 27.775 3.228 1.007 6.577 1.084 10.048 1.018-1.304 4.612-.851 8.678 2.713 12.171-2.832.372-5.285.639-7.719 1.025-6.751 1.074-13.229 2.915-18.684 7.286-7.518 6.022-9.784 17.021-1.544 24.55 2.31 2.11 4.936 3.532 7.747 4.566h-.007c3.752 1.315 8.924 2.325 14.539 2.341.912-.002 1.834-.027 2.765-.082h.169c.456-.029.916-.066 1.376-.109.006-.002.013-.009.021-.014.318-.029.638-.062.957-.098.005.002.007.007.011.011.896-.104 1.798-.236 2.699-.398.003-.005.007-.009.011-.012 1.088-.195 2.17-.436 3.235-.723.005-.002.009-.002.015-.004.354-.096.709-.196 1.059-.306h-.002c4.161-1.174 8.044-2.974 11.525-5.708 9.549-7.502 12.007-21.214 2.262-30.251zm-30.476-23.671c-4.572-6.005-6.399-12.875-5.36-20.198.572-4.024 2.78-7.603 7.166-9.12 4.616-1.597 8.623-.43 12.112 2.648 4.566 4.029 6.719 9.393 7.768 15.242.242 1.348.416 2.515.47 3.809.013 6.418-2.84 10.686-8.107 12.439-5.192 1.731-10.464-.113-14.049-4.82zm23.049 51.989c-3.631 2.53-7.59 3.604-11.045 3.599-6.771.03-11.178-.768-15.316-2.755-6.689-3.216-9.944-9.813-7.908-16.162 1.489-4.644 5.139-7.15 9.45-8.712 4.905-1.777 10.051-2.302 15.252-2.251.49.004 1.077.068 1.453.337 3.901 2.801 8.074 5.321 10.987 9.259 4.105 5.546 2.819 12.718-2.873 16.685z"/><path d="m-3437.601-109.266v11.173h10.713v4.818h-10.713v11.276h-5.023v-11.276h-10.711v-4.818h10.711v-11.173z"/><path d="m-3327.41-104.361c2.681-3.793 6.068-6.431 10.411-7.645 5.988-1.674 11.919-1.346 17.555 1.408 4.646 2.271 6.952 6.391 8.218 11.2.978 3.71 1.307 7.511 1.326 11.326.051 10.118.004 20.236.058 30.354.008 1.273-.447 1.557-1.613 1.544-4.741-.052-9.481-.058-14.223.004-1.213.015-1.577-.345-1.572-1.568.044-9.188.032-18.378.008-27.567-.008-2.695-.239-5.374-1.32-7.893-1.164-2.706-3.227-4.208-6.163-4.512-7.032-.727-11.253 2.769-11.765 9.839-.574 7.908-.155 15.83-.265 23.745-.032 2.249-.03 4.498.008 6.746.015.883-.302 1.208-1.194 1.202-4.937-.029-9.874-.048-14.811.006-1.238.013-1.299-.63-1.297-1.563.019-7.967.01-15.935.01-23.901 0-9.385.028-18.771-.029-28.153-.009-1.396.354-1.85 1.792-1.821 4.494.089 8.994.064 13.489.009 1.105-.013 1.446.33 1.4 1.422-.082 1.934-.023 3.877-.023 5.818z"/><path d="m-3372.328-84.006c0-8.649.024-17.298-.029-25.947-.008-1.277.315-1.68 1.626-1.659 4.738.076 9.48.066 14.22.006 1.216-.015 1.569.357 1.568 1.578-.037 17.396-.039 34.792.001 52.188.003 1.281-.343 1.688-1.644 1.669-4.739-.068-9.48-.066-14.219-.001-1.245.017-1.554-.402-1.548-1.594.045-8.747.025-17.493.025-26.24z"/><path d="m-3373.71-129.196c.004-5.473 4.473-9.936 9.981-9.967 5.549-.031 10.145 4.498 10.14 9.995-.004 5.493-4.588 9.978-10.17 9.949-5.52-.029-9.955-4.474-9.951-9.977z"/></g><path d="m49.974-.026c-27.614 0-50 22.386-50 50.001 0 27.614 22.386 50 50 50s50-22.386 50-50c.003-27.615-22.386-50.001-50-50.001zm28.315 34.852c-.246.23-.474.503-.764.658-1.433.761-1.64 1.953-1.645 3.489-.052 14.101-9.064 30.577-26.328 35.684-10.882 3.22-21.352 2.045-31.209-3.745-.228-.134-.502-.215-.634-.479-.007 0-.013 0-.02 0l-.025-.065.037.055c.002.004.006.007.008.011 2.191-.013 4.383.142 6.57-.172 4.575-.652 8.73-2.316 12.442-5.075.068-.05.111-.132.221-.268-5.973-.616-10.057-3.632-12.263-9.327 1.926.231 3.71.299 5.763-.168-6.596-2.124-10.015-6.46-10.438-13.304 1.898.915 3.708 1.568 5.904 1.651-1.423-1.152-2.61-2.242-3.479-3.619-2.714-4.296-2.979-8.75-.858-13.363.303-.66.487-.737 1.011-.133 6.447 7.438 14.569 11.779 24.328 13.054.636.084 1.28.109 1.917.188.476.058.618-.027.526-.578-.682-4.092.273-7.776 2.929-10.973 4.871-5.865 13.864-6.391 19.39-1.138.446.425.816.575 1.436.42 2.326-.581 4.549-1.41 6.663-2.539.205-.109.438-.361.661-.182.279.226.031.509-.068.747-.945 2.252-2.399 4.108-4.349 5.581-.137.103-.48.124-.321.43.135.262.35.094.556.058 2.077-.366 4.08-.986 6.085-1.697-1.102 1.83-2.513 3.366-4.046 4.799z" fill="#fff"/></svg>